<mxfile host="65bd71144e">
    <diagram id="0FSFTsLz7AvHLE-TYyxf" name="Page-1">
        <mxGraphModel dx="1021" dy="504" grid="1" gridSize="10" guides="1" tooltips="1" connect="1" arrows="1" fold="1" page="1" pageScale="1" pageWidth="850" pageHeight="1100" math="0" shadow="0">
            <root>
                <mxCell id="0"/>
                <mxCell id="1" parent="0"/>
                <mxCell id="2" value="Client View" style="shape=umlLifeline;perimeter=lifelinePerimeter;whiteSpace=wrap;html=1;container=1;collapsible=0;recursiveResize=0;outlineConnect=0;" vertex="1" parent="1">
                    <mxGeometry x="200" y="270" width="100" height="210" as="geometry"/>
                </mxCell>
                <mxCell id="3" value="" style="html=1;points=[];perimeter=orthogonalPerimeter;" vertex="1" parent="2">
                    <mxGeometry x="45" y="150.16" width="10" height="10" as="geometry"/>
                </mxCell>
                <mxCell id="4" value="Client Connection" style="shape=umlLifeline;perimeter=lifelinePerimeter;whiteSpace=wrap;html=1;container=1;collapsible=0;recursiveResize=0;outlineConnect=0;size=40;" vertex="1" parent="1">
                    <mxGeometry x="380" y="270" width="100" height="210" as="geometry"/>
                </mxCell>
                <mxCell id="5" value="" style="html=1;points=[];perimeter=orthogonalPerimeter;" vertex="1" parent="4">
                    <mxGeometry x="44.89" y="140" width="10" height="10" as="geometry"/>
                </mxCell>
                <mxCell id="6" value="Game Server&lt;br&gt;Connection" style="shape=umlLifeline;perimeter=lifelinePerimeter;whiteSpace=wrap;html=1;container=1;collapsible=0;recursiveResize=0;outlineConnect=0;" vertex="1" parent="1">
                    <mxGeometry x="910" y="270" width="100" height="210" as="geometry"/>
                </mxCell>
                <mxCell id="7" value="" style="html=1;points=[];perimeter=orthogonalPerimeter;" vertex="1" parent="6">
                    <mxGeometry x="45" y="80.16" width="10" height="69.84" as="geometry"/>
                </mxCell>
                <mxCell id="8" value="Game Server" style="shape=umlLifeline;perimeter=lifelinePerimeter;whiteSpace=wrap;html=1;container=1;collapsible=0;recursiveResize=0;outlineConnect=0;" vertex="1" parent="1">
                    <mxGeometry x="1090" y="270" width="100" height="210" as="geometry"/>
                </mxCell>
                <mxCell id="9" value="" style="html=1;points=[];perimeter=orthogonalPerimeter;" vertex="1" parent="8">
                    <mxGeometry x="45" y="90" width="10" height="40" as="geometry"/>
                </mxCell>
                <mxCell id="22" style="edgeStyle=none;html=1;entryX=1.042;entryY=0.738;entryDx=0;entryDy=0;entryPerimeter=0;" edge="1" parent="8" source="9" target="9">
                    <mxGeometry relative="1" as="geometry"/>
                </mxCell>
                <mxCell id="23" value="Timeout" style="edgeLabel;html=1;align=center;verticalAlign=middle;resizable=0;points=[];" vertex="1" connectable="0" parent="22">
                    <mxGeometry x="-0.0937" y="-1" relative="1" as="geometry">
                        <mxPoint x="26" y="3" as="offset"/>
                    </mxGeometry>
                </mxCell>
                <mxCell id="11" value="userResigned" style="html=1;verticalAlign=bottom;endArrow=open;dashed=1;endSize=8;entryX=0.986;entryY=-0.051;entryDx=0;entryDy=0;entryPerimeter=0;exitX=0.022;exitY=0.842;exitDx=0;exitDy=0;exitPerimeter=0;" edge="1" parent="1" target="5" source="7">
                    <mxGeometry relative="1" as="geometry">
                        <mxPoint x="950" y="420" as="sourcePoint"/>
                        <mxPoint x="509.89" y="380.15999999999997" as="targetPoint"/>
                    </mxGeometry>
                </mxCell>
                <mxCell id="13" value="userDisconnected" style="html=1;verticalAlign=bottom;endArrow=block;entryX=-0.068;entryY=-0.003;entryDx=0;entryDy=0;entryPerimeter=0;" edge="1" parent="1" source="7" target="9">
                    <mxGeometry width="80" relative="1" as="geometry">
                        <mxPoint x="1484.8900000000003" y="380.15999999999997" as="sourcePoint"/>
                        <mxPoint x="1130" y="360" as="targetPoint"/>
                    </mxGeometry>
                </mxCell>
                <mxCell id="14" value="send(userResigned)" style="html=1;verticalAlign=bottom;endArrow=open;dashed=1;endSize=8;exitX=1.022;exitY=0.995;exitDx=0;exitDy=0;exitPerimeter=0;" edge="1" parent="1" source="9" target="7">
                    <mxGeometry relative="1" as="geometry">
                        <mxPoint x="1344.89" y="410.15999999999997" as="sourcePoint"/>
                        <mxPoint x="1454.89" y="410.15999999999997" as="targetPoint"/>
                    </mxGeometry>
                </mxCell>
                <mxCell id="15" value="userResigned" style="html=1;verticalAlign=bottom;endArrow=open;dashed=1;endSize=8;exitX=0.041;exitY=1.002;exitDx=0;exitDy=0;exitPerimeter=0;" edge="1" parent="1" source="5" target="3">
                    <mxGeometry relative="1" as="geometry">
                        <mxPoint x="474.89" y="430.15999999999997" as="sourcePoint"/>
                        <mxPoint x="309.89" y="430.32000000000005" as="targetPoint"/>
                    </mxGeometry>
                </mxCell>
                <mxCell id="16" value="Client2 View" style="shape=umlLifeline;perimeter=lifelinePerimeter;whiteSpace=wrap;html=1;container=1;collapsible=0;recursiveResize=0;outlineConnect=0;" vertex="1" parent="1">
                    <mxGeometry x="560" y="270" width="100" height="210" as="geometry"/>
                </mxCell>
                <mxCell id="17" value="" style="html=1;points=[];perimeter=orthogonalPerimeter;" vertex="1" parent="16">
                    <mxGeometry x="45" y="160.16" width="10" height="10" as="geometry"/>
                </mxCell>
                <mxCell id="18" value="Client2 Connection" style="shape=umlLifeline;perimeter=lifelinePerimeter;whiteSpace=wrap;html=1;container=1;collapsible=0;recursiveResize=0;outlineConnect=0;" vertex="1" parent="1">
                    <mxGeometry x="730" y="270" width="100" height="210" as="geometry"/>
                </mxCell>
                <mxCell id="19" value="" style="html=1;points=[];perimeter=orthogonalPerimeter;" vertex="1" parent="18">
                    <mxGeometry x="45" y="150" width="10" height="10" as="geometry"/>
                </mxCell>
                <mxCell id="20" value="userResigned" style="html=1;verticalAlign=bottom;endArrow=open;dashed=1;endSize=8;entryX=0.848;entryY=0.005;entryDx=0;entryDy=0;entryPerimeter=0;" edge="1" parent="1" source="7" target="19">
                    <mxGeometry relative="1" as="geometry">
                        <mxPoint x="960" y="430" as="sourcePoint"/>
                        <mxPoint x="880" y="420" as="targetPoint"/>
                    </mxGeometry>
                </mxCell>
                <mxCell id="21" value="userResigned" style="html=1;verticalAlign=bottom;endArrow=open;dashed=1;endSize=8;" edge="1" parent="1" source="19" target="17">
                    <mxGeometry relative="1" as="geometry">
                        <mxPoint x="780" y="440" as="sourcePoint"/>
                        <mxPoint x="700" y="440" as="targetPoint"/>
                    </mxGeometry>
                </mxCell>
            </root>
        </mxGraphModel>
    </diagram>
</mxfile>